<?xml version="1.0" encoding="utf-8"?>
<!-- Generator: Adobe Illustrator 16.0.0, SVG Export Plug-In . SVG Version: 6.00 Build 0)  -->
<!DOCTYPE svg PUBLIC "-//W3C//DTD SVG 1.1//EN" "http://www.w3.org/Graphics/SVG/1.1/DTD/svg11.dtd">
<svg version="1.1" id="Layer_1" xmlns="http://www.w3.org/2000/svg" xmlns:xlink="http://www.w3.org/1999/xlink" x="0px" y="0px"
	 width="589.027px" height="111.213px" viewBox="0 0 589.027 111.213" enable-background="new 0 0 589.027 111.213"
	 xml:space="preserve">
<path fill="#FFFFFF" d="M256.283,107.04h-1.049c-1.096,2.191-2.262,2.892-4.851,2.892h-1.166c-2.099,0-2.729-0.7-2.729-2.938v-3.848
	h3.171c2.006,0,2.799,0.606,3.079,2.379h0.956v-5.621h-0.956c-0.117,1.656-0.933,2.239-3.125,2.239h-3.125v-6.11h3.731
	c1.936,0,3.125,0.443,3.964,2.542h0.839V95.03h-13.479v0.886c1.889,0,2.495,0.84,2.495,2.379v9.374c0,1.703-0.723,2.379-2.495,2.379
	v0.887h13.689L256.283,107.04z M238.053,105.99c0-1.539,0.49-2.215,2.122-2.355v-0.886h-7.462v0.886h0.49
	c1.586,0,2.309,0.77,2.309,2.192v3.358c-1.375,0.723-2.565,1.025-3.871,1.025c-3.801,0-6.763-3.171-6.763-7.299
	c0-4.104,2.798-7.159,6.506-7.159c2.519,0,4.268,1.213,5.48,3.777h0.957l-0.327-3.73c-2.309-0.77-3.871-1.05-5.69-1.05
	c-5.457,0-9.841,3.778-9.841,8.512c0,3.895,3.055,7.952,9.562,7.952c1.819,0,3.871-0.326,6.529-1.119V105.99z M219.868,107.04
	h-1.049c-1.096,2.191-2.262,2.892-4.851,2.892h-1.166c-2.099,0-2.729-0.7-2.729-2.938v-3.848h3.172c2.005,0,2.798,0.606,3.078,2.379
	h0.956v-5.621h-0.956c-0.117,1.656-0.933,2.239-3.125,2.239h-3.125v-6.11h3.731c1.936,0,3.125,0.443,3.964,2.542h0.839V95.03
	h-13.479v0.886c1.889,0,2.496,0.84,2.496,2.379v9.374c0,1.703-0.723,2.379-2.496,2.379v0.887h13.689L219.868,107.04z
	 M191.282,107.366c0,2.029-0.443,2.542-2.635,2.682v0.887h14.808l0.979-3.895h-0.979c-1.189,2.099-2.519,2.892-4.571,2.892h-2.076
	c-2.285,0-3.078-0.933-3.078-3.078v-8.698c0-1.33,0.49-2.239,2.635-2.239V95.03h-7.719v0.886c2.099,0,2.635,0.77,2.635,2.332
	V107.366z M174.893,107.366c0,2.029-0.443,2.542-2.635,2.682v0.887h14.808l0.979-3.895h-0.979c-1.189,2.099-2.519,2.892-4.57,2.892
	h-2.076c-2.285,0-3.078-0.933-3.078-3.078v-8.698c0-1.33,0.49-2.239,2.635-2.239V95.03h-7.719v0.886c2.099,0,2.635,0.77,2.635,2.332
	V107.366z M156.242,102.026c0-4.104,2.215-6.273,5.014-6.273c3.895,0,5.83,4.128,5.83,8.186c0,3.754-2.029,6.272-5.084,6.272
	C158.248,110.21,156.242,106.293,156.242,102.026z M153.42,103.285c0,4.711,3.685,7.929,7.882,7.929
	c4.874,0,8.605-3.545,8.605-8.162c0-4.757-3.521-8.302-8.232-8.302C157.595,94.75,153.42,97.618,153.42,103.285z M150.067,99.553
	l-0.56-3.708c-1.936-0.723-3.731-1.096-5.457-1.096c-6.203,0-9.235,4.384-9.235,8.465c0,4.688,3.685,7.999,8.908,7.999
	c1.866,0,4.571-0.536,6.343-1.259l0.117-3.661h-0.863c-0.583,2.635-2.589,3.917-5.201,3.917c-4.151,0-6.483-3.428-6.483-7.393
	c0-4.71,2.985-7.065,6.157-7.065c2.309,0,4.454,1.469,5.527,3.801H150.067z M111.737,96.032h2.262c5.503,0,7.672,3.778,7.672,7.416
	c0,3.405-1.982,6.483-6.157,6.483h-1.329c-1.516,0-2.448-0.979-2.448-2.472V96.032z M109.289,107.692
	c0,1.749-0.676,2.355-2.612,2.355v0.887h8.861c6.413,0,9.048-4.432,9.048-8.069c0-1.959-0.583-3.708-2.355-5.48
	c-1.585-1.585-3.544-2.354-6.506-2.354h-9.048v0.886c2.192,0,2.612,1.003,2.612,2.519V107.692z M94.299,102.422v-6.391h1.819
	c2.868,0,4.127,1.609,4.127,3.382c0,1.865-1.143,3.009-3.754,3.009H94.299z M94.299,103.424h0.676c1.049,0,1.306,0.257,1.866,0.956
	l3.102,3.871c1.749,2.169,2.448,2.683,4.127,2.683h1.866v-0.887c-0.91,0-2.099-1.119-3.871-3.125l-3.335-3.801
	c3.148-0.513,4.337-2.285,4.337-3.988c0-2.262-1.585-4.104-5.946-4.104h-7.626v0.886c1.632,0,2.355,0.746,2.355,2.285v9.165
	c0,1.562-0.303,2.682-2.355,2.682v0.887h7.252v-0.887c-1.749,0-2.448-0.723-2.448-2.192V103.424z M81.431,103.471h-5.13l2.495-6.319
	L81.431,103.471z M83.157,107.576c0.583,1.399,0.14,2.285-1.726,2.472v0.887h6.529v-0.887c-0.863,0-1.306-0.489-1.772-1.562
	L80.405,95.03H77.91l0.373,0.746l-4.687,11.66c-0.676,1.679-1.05,2.309-2.262,2.611v0.887h5.364v-0.887
	c-1.772-0.093-2.355-1.492-1.726-3.125l0.839-2.191h6.156L83.157,107.576z M54.316,107.505c0.023,1.912-0.77,2.542-2.822,2.542
	v0.887h6.669v-0.887c-1.912,0-2.845-0.862-2.845-2.984V98.97l9.655,9.888c0.536,0.537,1.143,1.283,1.865,2.263h1.54
	c-0.094-1.493-0.537-2.006-0.537-4.338v-7.299c0-2.122,0.746-3.568,2.495-3.568V95.03h-6.273v0.886c2.355,0,2.729,1.726,2.775,3.568
	v7.625L54.922,95.03h-3.778v0.886c0.886,0.094,1.376,0.257,2.146,0.956l1.026,1.026V107.505z M39.279,102.422v-6.391h1.819
	c2.869,0,4.128,1.609,4.128,3.382c0,1.865-1.143,3.009-3.755,3.009H39.279z M39.279,103.424h0.676c1.049,0,1.306,0.257,1.866,0.956
	l3.102,3.871c1.749,2.169,2.449,2.683,4.127,2.683h1.866v-0.887c-0.91,0-2.099-1.119-3.871-3.125l-3.335-3.801
	c3.148-0.513,4.338-2.285,4.338-3.988c0-2.262-1.586-4.104-5.947-4.104h-7.625v0.886c1.632,0,2.355,0.746,2.355,2.285v9.165
	c0,1.562-0.303,2.682-2.355,2.682v0.887h7.252v-0.887c-1.749,0-2.449-0.723-2.449-2.192V103.424z M26.412,103.471h-5.13l2.495-6.319
	L26.412,103.471z M28.137,107.576c0.583,1.399,0.14,2.285-1.726,2.472v0.887h6.53v-0.887c-0.863,0-1.306-0.489-1.772-1.562
	L25.386,95.03h-2.495l0.373,0.746l-4.688,11.66c-0.676,1.679-1.049,2.309-2.262,2.611v0.887h5.364v-0.887
	c-1.772-0.093-2.355-1.492-1.726-3.125l0.839-2.191h6.157L28.137,107.576z M5.289,103.168h2.355c2.938,0,4.081,1.936,4.081,3.685
	c0,1.889-1.166,3.078-3.055,3.078H7.48c-1.469,0-2.192-0.84-2.192-2.355V103.168z M5.289,102.072v-6.04h1.865
	c2.519,0,3.941,1.073,3.941,3.219c0,2.122-1.12,2.821-3.591,2.821H5.289z M2.84,107.646c0,1.539-0.537,2.401-2.472,2.401v0.887
	h8.862c2.822,0,5.317-1.586,5.317-4.245c0-1.795-1.259-3.964-5.364-4.058v-0.046c3.288-0.49,4.734-1.562,4.734-3.708
	c0-2.449-1.842-3.848-5.084-3.848H0.368v0.886c1.772,0,2.472,0.699,2.472,2.262V107.646z"/>
<path fill="#FFFFFF" d="M266.875,103.706c0.326,0.326,0.725,0.489,1.195,0.489c0.462,0,0.859-0.165,1.189-0.495
	s0.495-0.727,0.495-1.189s-0.165-0.859-0.495-1.19c-0.33-0.33-0.727-0.495-1.189-0.495c-0.471,0-0.869,0.165-1.195,0.495
	c-0.327,0.331-0.49,0.728-0.49,1.19C266.385,102.981,266.548,103.379,266.875,103.706z"/>
<path fill="#FFFFFF" d="M581.084,104.264l4.268-6.087c1.144-1.632,1.726-2.146,2.683-2.262V95.03h-5.737v0.886
	c1.866,0.094,2.239,1.516,1.119,3.148l-2.705,3.964l-3.475-5.061c-0.839-1.212-0.442-2.052,1.399-2.052V95.03h-6.996v0.886
	c0.979,0.094,1.586,0.42,2.122,1.213l4.874,7.136v3.568c0,1.562-0.84,2.215-2.379,2.215v0.887h7.159v-0.887
	c-1.516,0-2.332-0.699-2.332-2.192V104.264z M560.778,107.646c0,1.655-0.606,2.401-2.519,2.401v0.887h7.485v-0.887
	c-1.959,0-2.519-0.793-2.519-2.262V96.032h2.519c2.052,0,2.658,0.42,4.011,2.775h0.793l-0.257-3.777h-16.604l-0.233,3.777h0.793
	c1.283-2.332,1.936-2.775,4.012-2.775h2.519V107.646z M549.4,98.318c0-1.796,0.793-2.402,2.495-2.402V95.03h-7.485v0.886
	c1.981,0,2.542,0.746,2.542,2.495v8.955c0,1.865-0.373,2.682-2.542,2.682v0.887h7.485v-0.887c-1.936,0-2.495-0.84-2.495-2.355
	V98.318z M530.702,110.094c1.166,0.606,3.685,1.119,5.387,1.119c3.404,0,5.83-1.818,5.83-4.407c0-1.143-0.443-2.053-1.283-2.892
	c-1.748-1.749-5.224-3.125-6.459-4.361c-0.514-0.513-0.746-1.003-0.746-1.586c0-1.259,1.259-2.215,2.868-2.215
	c2.169,0,3.848,1.376,4.011,3.755h1.003v-3.429c-1.539-0.862-3.312-1.329-4.874-1.329c-3.218,0-5.41,1.609-5.41,4.011
	c0,1.05,0.396,1.819,1.05,2.473c1.959,1.959,5.083,3.031,6.6,4.547c0.676,0.677,0.839,1.283,0.839,1.702
	c0,1.423-1.562,2.612-3.498,2.612c-2.588,0-3.848-1.609-4.313-4.011h-1.003V110.094z M517.624,102.422v-6.391h1.819
	c2.868,0,4.128,1.609,4.128,3.382c0,1.865-1.143,3.009-3.755,3.009H517.624z M517.624,103.424h0.677c1.05,0,1.306,0.257,1.865,0.956
	l3.102,3.871c1.749,2.169,2.449,2.683,4.128,2.683h1.865v-0.887c-0.909,0-2.099-1.119-3.871-3.125l-3.334-3.801
	c3.147-0.513,4.337-2.285,4.337-3.988c0-2.262-1.586-4.104-5.946-4.104h-7.626v0.886c1.633,0,2.355,0.746,2.355,2.285v9.165
	c0,1.562-0.303,2.682-2.355,2.682v0.887h7.253v-0.887c-1.749,0-2.449-0.723-2.449-2.192V103.424z M510.913,107.04h-1.05
	c-1.096,2.191-2.262,2.892-4.851,2.892h-1.166c-2.099,0-2.729-0.7-2.729-2.938v-3.848h3.172c2.006,0,2.799,0.606,3.078,2.379h0.956
	v-5.621h-0.956c-0.116,1.656-0.933,2.239-3.125,2.239h-3.125v-6.11h3.731c1.936,0,3.125,0.443,3.965,2.542h0.839V95.03h-13.479
	v0.886c1.889,0,2.495,0.84,2.495,2.379v9.374c0,1.703-0.723,2.379-2.495,2.379v0.887h13.688L510.913,107.04z M483.61,98.854
	c-1.026-2.122-0.887-2.845,1.259-2.938V95.03h-6.366v0.886c0.933,0,1.213,0.187,2.075,2.052l4.851,10.494
	c0.49,1.073,0.793,1.912,0.979,2.752h1.26c0.256-1.259,0.652-2.448,1.025-3.335l2.846-6.622c0.746-1.749,1.399-3.965,1.912-4.478
	c0.35-0.351,0.816-0.653,1.492-0.863V95.03h-5.457v0.886c2.565,0.28,2.286,2.006,1.236,4.454l-1.982,4.664
	c-0.373,0.886-0.723,1.702-1.072,2.682c-0.327-0.862-0.653-1.749-1.05-2.588L483.61,98.854z M474.728,98.318
	c0-1.796,0.793-2.402,2.495-2.402V95.03h-7.485v0.886c1.982,0,2.542,0.746,2.542,2.495v8.955c0,1.865-0.373,2.682-2.542,2.682v0.887
	h7.485v-0.887c-1.936,0-2.495-0.84-2.495-2.355V98.318z M452.16,107.505c0.023,1.912-0.77,2.542-2.822,2.542v0.887h6.67v-0.887
	c-1.912,0-2.845-0.862-2.845-2.984V98.97l9.654,9.888c0.536,0.537,1.143,1.283,1.865,2.263h1.539
	c-0.093-1.493-0.536-2.006-0.536-4.338v-7.299c0-2.122,0.746-3.568,2.495-3.568V95.03h-6.273v0.886c2.355,0,2.729,1.726,2.775,3.568
	v7.625L452.767,95.03h-3.778v0.886c0.886,0.094,1.376,0.257,2.146,0.956l1.026,1.026V107.505z M429.195,95.03v0.886
	c2.029,0,2.542,0.84,2.542,2.239v7.905c0,2.729,2.052,5.153,6.856,5.153c3.614,0,6.763-1.492,6.763-6.272v-6.577
	c0-1.818,1.025-2.448,2.472-2.448V95.03h-6.273v0.886c2.216,0,2.752,1.05,2.752,2.729v6.109c0,3.662-2.519,5.061-5.153,5.061
	c-3.125,0-4.968-1.632-4.968-4.221v-7.252c0-1.796,0.653-2.426,2.659-2.426V95.03H429.195z M414.511,103.471h-5.13l2.495-6.319
	L414.511,103.471z M416.236,107.576c0.583,1.399,0.14,2.285-1.726,2.472v0.887h6.529v-0.887c-0.862,0-1.306-0.489-1.771-1.562
	l-5.784-13.455h-2.495l0.373,0.746l-4.688,11.66c-0.676,1.679-1.049,2.309-2.262,2.611v0.887h5.363v-0.887
	c-1.771-0.093-2.354-1.492-1.726-3.125l0.84-2.191h6.156L416.236,107.576z M400.614,98.318c0-1.796,0.793-2.402,2.496-2.402V95.03
	h-7.486v0.886c1.982,0,2.542,0.746,2.542,2.495v8.955c0,1.865-0.373,2.682-2.542,2.682v0.887h7.486v-0.887
	c-1.936,0-2.496-0.84-2.496-2.355V98.318z M384.039,103.168h2.355c2.938,0,4.081,1.936,4.081,3.685c0,1.889-1.166,3.078-3.056,3.078
	h-1.189c-1.469,0-2.191-0.84-2.191-2.355V103.168z M384.039,102.072v-6.04h1.865c2.519,0,3.941,1.073,3.941,3.219
	c0,2.122-1.119,2.821-3.592,2.821H384.039z M381.59,107.646c0,1.539-0.536,2.401-2.472,2.401v0.887h8.861
	c2.822,0,5.317-1.586,5.317-4.245c0-1.795-1.26-3.964-5.363-4.058v-0.046c3.288-0.49,4.733-1.562,4.733-3.708
	c0-2.449-1.842-3.848-5.084-3.848h-8.465v0.886c1.772,0,2.472,0.699,2.472,2.262V107.646z M373.854,98.597
	c-0.21-1.655-0.046-2.519,1.749-2.682V95.03h-4.733c0.233,1.143,0.023,2.309-0.677,3.964c-0.77,1.819-2.075,4.571-4.104,8.559
	c-1.188-3.708-4.664-8.488-4.92-12.522h-4.641v0.886c1.655,0.116,2.005,1.096,1.702,3.102l-1.329,8.651
	c-0.257,1.656-0.816,2.379-2.192,2.379v0.887h5.457v-0.887c-1.843-0.116-2.448-0.979-2.075-3.381l1.212-8.442h0.047
	c1.376,4.291,4.99,9.771,5.48,12.71h1.096c0.677-3.148,3.778-7.416,5.41-12.337h0.047l1.073,8.979
	c0.187,1.516-0.443,2.472-2.029,2.472v0.887h7.043v-0.887c-1.726-0.187-2.239-0.979-2.426-2.332L373.854,98.597z M334.566,95.03
	v0.886c2.029,0,2.542,0.84,2.542,2.239v7.905c0,2.729,2.052,5.153,6.856,5.153c3.614,0,6.763-1.492,6.763-6.272v-6.577
	c0-1.818,1.025-2.448,2.472-2.448V95.03h-6.273v0.886c2.216,0,2.752,1.05,2.752,2.729v6.109c0,3.662-2.519,5.061-5.153,5.061
	c-3.125,0-4.968-1.632-4.968-4.221v-7.252c0-1.796,0.653-2.426,2.659-2.426V95.03H334.566z M320.929,107.366
	c0,2.029-0.443,2.542-2.635,2.682v0.887h14.808l0.979-3.895h-0.979c-1.189,2.099-2.519,2.892-4.57,2.892h-2.075
	c-2.286,0-3.079-0.933-3.079-3.078v-8.698c0-1.33,0.49-2.239,2.636-2.239V95.03h-7.719v0.886c2.099,0,2.635,0.77,2.635,2.332
	V107.366z M302.278,102.026c0-4.104,2.215-6.273,5.014-6.273c3.895,0,5.83,4.128,5.83,8.186c0,3.754-2.029,6.272-5.084,6.272
	C304.284,110.21,302.278,106.293,302.278,102.026z M299.456,103.285c0,4.711,3.685,7.929,7.883,7.929
	c4.874,0,8.604-3.545,8.604-8.162c0-4.757-3.521-8.302-8.231-8.302C303.631,94.75,299.456,97.618,299.456,103.285z M296.104,99.553
	l-0.56-3.708c-1.936-0.723-3.731-1.096-5.457-1.096c-6.203,0-9.235,4.384-9.235,8.465c0,4.688,3.685,7.999,8.909,7.999
	c1.865,0,4.57-0.536,6.343-1.259l0.117-3.661h-0.863c-0.583,2.635-2.589,3.917-5.201,3.917c-4.151,0-6.483-3.428-6.483-7.393
	c0-4.71,2.985-7.065,6.157-7.065c2.309,0,4.454,1.469,5.527,3.801H296.104z"/>
<path fill="#FFFFFF" d="M16.215,29.432V7.664l7.439-0.779c6.664-0.667,13.772,3.332,13.772,10.994
	c0,9.11-10.326,11.553-17.549,11.553H16.215z M4.884,57.419c0,5.108,0.667,13.217-4.884,15.328v0.332h18.326
	c8.328,0,17.102,0.335,24.878-3.444c7.439-3.553,13.324-10.884,13.324-19.435c0-10.883-8.107-17.549-18.103-19.659
	c6.334-2.778,11.106-7,11.106-14.44C49.531,6.218,40.98,0,26.319,0H0v0.332c5.663,2.111,4.884,10.22,4.884,15.216V57.419z
	 M16.215,64.195V36.759l7.774-0.442c9.771-0.556,20.215,4.11,20.215,14.88c0,10.552-9.219,14.773-18.33,13.884L16.215,64.195z"/>
<path fill="#FFFFFF" d="M121.587,45.646l5.998,15.661c2.997,7.773,3.888,8.994-1.554,11.44v0.328h22.768v-0.328
	c-6.331-3.225-8.329-9.445-10.884-15.774L114.814,0H97.265v0.335c5.333,1.661,3.22,6.326,1.671,10.324L80.388,56.973
	c-2.446,6.329-4.333,12.549-10.771,15.774v0.328h20.434v-0.328c-5.332-2.002-4.555-5.219-2.226-11.44l5.776-15.661H121.587z
	 M118.371,37.429H96.49l10.996-27.99L118.371,37.429z"/>
<path fill="#FFFFFF" d="M193.85,0c14.883,0,22.986,7.774,22.986,17.879c0,9.776-8.549,17.438-17.658,19.55l15.997,20.101
	c4.663,5.771,11.657,11.55,17.989,15.549h-10.213c-5.889,0-9.556-1.44-12.886-5.556L196.512,50.75l-10.217-15.655
	c8.886-1.333,19.215-5.443,19.215-15.883c0-7.999-6.887-12.66-14.326-12.328c-2.557,0.117-4.998,0.444-7.555,0.891V57.53
	c0,5.108-0.665,13.218,4.998,15.217v0.332h-21.209v-0.332c5.663-1.999,4.886-10.22,4.886-15.217V15.659
	c0-5.107,0.777-13.216-4.886-15.327V0H193.85z"/>
<path fill="#FFFFFF" d="M264.395,58.64c0,6.223-0.109,10.663,5.776,14.107v0.327h-19.659v-0.327
	c5.882-3.444,5.882-7.885,5.882-14.107V14.327c0-6.217,0-10.663-5.771-13.991V0h16.218v0.107c0.445,1.336,0.886,1.889,1.661,2.778
	l1.556,2.224l40.652,51.308v-42.09c0-6.217,0.108-10.663-5.775-13.991V0h19.543v0.335c-5.768,3.329-5.768,7.774-5.768,13.991v62.309
	c-7.892-2.671-11.334-6.334-16.222-12.663l-38.093-48.313V58.64z"/>
<path fill="#FFFFFF" d="M391.879,45.646l5.996,15.661c2.997,7.773,3.886,8.994-1.552,11.44v0.328h22.765v-0.328
	c-6.331-3.225-8.332-9.445-10.886-15.774L385.103,0h-17.551v0.335c5.333,1.661,3.22,6.326,1.668,10.324l-18.544,46.313
	c-2.446,6.329-4.335,12.549-10.771,15.774v0.328h20.429v-0.328c-5.333-2.002-4.549-5.219-2.221-11.44l5.78-15.661H391.879z
	 M388.656,37.429h-21.878l10.999-27.99L388.656,37.429z"/>
<path fill="#FFFFFF" d="M463.439,1.367c14.891,0,22.991,7.769,22.991,17.879c0,9.773-8.545,17.438-17.658,19.546l15.993,20.096
	c4.67,5.778,11.666,11.558,17.995,15.551h-10.226c-5.877,0-9.546-1.442-12.869-5.55l-13.553-16.772l-10.219-15.66
	c8.881-1.33,19.21-5.44,19.21-15.883c0-7.994-6.881-12.655-14.322-12.323c-2.559,0.107-5.001,0.444-7.56,0.886v49.752
	c0,5.113-0.661,13.223,5.001,15.225v0.326h-21.211v-0.326c5.663-2.002,4.885-10.22,4.885-15.225V17.022
	c0-5.108,0.778-13.212-4.885-15.324V1.367H463.439z"/>
<path fill="#FFFFFF" d="M525.61,57.089c0,6.551,0.667,11.879-4.884,15.655v0.335h26.649c24.878,0,41.651-15.325,41.651-37.206
	c0-22.1-15.772-35.872-41.093-35.872h-27.208v0.33c5.661,1.669,4.884,9.779,4.884,14.882V57.089z M536.939,9.215
	c3.328-0.775,6.66-1.217,9.998-1.217c18.543,0,29.43,9.773,29.43,29.208c0,19.217-14.772,27.875-31.317,27.875
	c-2.777,0-5.448-0.22-8.11-0.777V9.215z"/>
</svg>
